<svg xmlns="http://www.w3.org/2000/svg" width="14" height="13.999" viewBox="0 0 14 13.999">
  <g id="close" transform="translate(0 0.001)">
    <path id="Path_4109" data-name="Path 4109" d="M13.707,14a.291.291,0,0,1-.206-.085L7,7.411l-6.5,6.5A.292.292,0,0,1,.085,13.5L6.586,7,.086.5a.292.292,0,0,1,0-.412A.288.288,0,0,1,.292,0,.292.292,0,0,1,.5.084L7,6.586l6.5-6.5A.292.292,0,0,1,13.914.5L7.412,7l6.5,6.5a.292.292,0,0,1,0,.412A.287.287,0,0,1,13.707,14Z" transform="translate(0)" fill="#fff"/>
  </g>
</svg>
