<svg id="Component" xmlns="http://www.w3.org/2000/svg" width="32.847" height="32.847" viewBox="0 0 32.847 32.847">
  <g id="love-heart-hands-hold-2">
    <path id="Path_3639" data-name="Path 3639" d="M.637,26.468A.637.637,0,0,1,0,25.831V15.637a.637.637,0,1,1,1.274,0v.637H7.327A4.481,4.481,0,0,1,11.741,20.1h4.187a4.465,4.465,0,0,1,4.46,4.46.637.637,0,0,1-.637.637H1.274v.637A.637.637,0,0,1,.637,26.468ZM19.049,23.92a3.212,3.212,0,0,0-3.121-2.548h-8.6a.637.637,0,1,1,0-1.274h3.119a3.211,3.211,0,0,0-3.119-2.548H1.274V23.92Z" transform="translate(0 6.379)" fill="#fff"/>
    <path id="Path_3640" data-name="Path 3640" d="M27.751,11.468a.637.637,0,0,1-.637-.637v-.637H21.061a4.481,4.481,0,0,1-4.414-3.823H12.46A4.465,4.465,0,0,1,8,1.911a.637.637,0,0,1,.637-.637H27.114V.637a.637.637,0,0,1,1.274,0V10.831A.637.637,0,0,1,27.751,11.468Zm-9.809-5.1A3.211,3.211,0,0,0,21.061,8.92h6.053V2.548H9.338A3.213,3.213,0,0,0,12.46,5.1h8.6a.637.637,0,1,1,0,1.274Z" transform="translate(4.459)" fill="#fff"/>
    <path id="Path_3641" data-name="Path 3641" d="M13.077,17.925a1.255,1.255,0,0,1-.608-.157c-1.014-.554-4.33-2.573-4.4-5.258A3.332,3.332,0,0,1,10.4,9.1a3.146,3.146,0,0,1,.884-.129,2.779,2.779,0,0,1,1.793.627,2.779,2.779,0,0,1,1.793-.627,3.155,3.155,0,0,1,.886.129,3.324,3.324,0,0,1,2.325,3.4c-.064,2.608-3.1,4.557-4.4,5.273A1.255,1.255,0,0,1,13.077,17.925Zm-1.794-7.682a1.863,1.863,0,0,0-.525.076A2.083,2.083,0,0,0,9.349,12.5c.04,1.578,1.955,3.182,3.735,4.157,1.769-.981,3.686-2.592,3.725-4.172A2.076,2.076,0,0,0,15.4,10.319a1.878,1.878,0,0,0-.526-.076,1.468,1.468,0,0,0-1.259.646.636.636,0,0,1-1.073,0A1.471,1.471,0,0,0,11.283,10.243Z" transform="translate(3.347 3.656)" fill="#fff"/>
  </g>
</svg>
