<svg xmlns="http://www.w3.org/2000/svg" width="20.724" height="26.961" viewBox="0 0 20.724 26.961">
  <path id="Path_18" data-name="Path 18" d="M2.655,3.373H23.379v20.8q-10.362.006-20.724,0V3.373M5.619,6.349q0,7.436,0,14.873,7.4,0,14.793,0,0-7.435,0-14.87-7.4,0-14.793,0M12.59,10.99a3.77,3.77,0,0,1,.426-.161,3.955,3.955,0,0,1,.448.169c1.384.554,2.766,1.115,4.153,1.665q1.063.439,2.133.86c.032.017.092.025.084.076,0,1.045,0,2.09,0,3.135-.423-.139-.827-.329-1.243-.486-1.829-.738-3.661-1.469-5.489-2.208-.139-.049-.271.044-.4.092-1.032.418-2.066.827-3.1,1.245-1.139.448-2.267.926-3.411,1.359,0-1.057,0-2.114,0-3.172a5.445,5.445,0,0,1,.586-.234c.74-.308,1.485-.606,2.231-.9q1.788-.721,3.577-1.439m8.665,15.621c.205,0,.411,0,.616,0,.008.65,0,1.3,0,1.95.007.109.007.261.132.3a1.558,1.558,0,0,0,.515.02.186.186,0,0,0,.192-.181c.015-.315,0-.631,0-.946.219,0,.439,0,.658,0v1.1a.854.854,0,0,1-.381.566.982.982,0,0,1-.58.112,2.186,2.186,0,0,1-.765-.071.618.618,0,0,1-.4-.489c-.028-.462-.022-.924-.021-1.386,0-.328-.014-.656.02-.982m-14.449.253c.114-.109.226-.265.4-.25a3.764,3.764,0,0,1,.712.027c-.328.369-.7.7-1.036,1.057a.28.28,0,0,0-.063.1,3.71,3.71,0,0,0,.329.349c.178.191.366.373.546.562a.779.779,0,0,0,.2.167,3,3,0,0,0,.494.01.2.2,0,0,0,.2-.222c0-.3,0-.608,0-.912.214,0,.428,0,.642,0,.009.328-.006.657.006.985a.179.179,0,0,0,.148.2c.09.005.253.042.26-.093.016-.362,0-.726.006-1.088.209,0,.418,0,.627,0,.022.326,0,.653.011.98,0,.045,0,.1.038.134.089.1.238.062.356.066.02-.392.009-.786,0-1.178.213,0,.427,0,.641,0,.017.35-.012.7.014,1.052.012.177.23.153.357.16.157-.015.353.04.48-.073.083-.243-.015-.512.064-.757a.578.578,0,0,1,.459-.375c.188-.014.377,0,.565-.006a1.01,1.01,0,0,1,.432.049.569.569,0,0,1,.339.5c0,.24,0,.48,0,.72a.581.581,0,0,1-.207.454.889.889,0,0,1-.566.126c-.178,0-.358.008-.535-.01a1.107,1.107,0,0,1-.391-.163.949.949,0,0,1-.355.158,1.321,1.321,0,0,1-.967-.176.88.88,0,0,1-.551.174c-.186.008-.336-.118-.508-.163a1.12,1.12,0,0,1-.5.164.993.993,0,0,1-.569-.168.884.884,0,0,1-.392.118c-.879,0-1.758,0-2.636,0a3.365,3.365,0,0,1-.444-.043,1.108,1.108,0,0,1-.913.833c-.272.011-.545,0-.818,0a.949.949,0,0,1-.662-.287,1.382,1.382,0,0,1-.369-.725V27.759c.217,0,.434,0,.651,0,.007.5,0,1.008,0,1.513a.434.434,0,0,0,.385.408c.211.016.423,0,.634.007a.464.464,0,0,0,.479-.448c0-.495,0-.99,0-1.485.209,0,.419,0,.629,0,.022.323-.011.647.016.969.024.155.207.171.332.169.386-.006.772.009,1.157-.01a4.008,4.008,0,0,0-.406-.432c-.214-.219-.434-.433-.649-.652.295-.322.618-.616.918-.933m6.085,1.428c-.128.077-.094.247-.1.373s0,.288.133.337c.146.014.293,0,.439,0,.138-.139.09-.344.094-.52a.19.19,0,0,0-.16-.205.78.78,0,0,0-.406.013m5.339-1.611c.077-.09.2-.063.305-.067.207,0,.414-.009.62.009a2.292,2.292,0,0,1-.315.347c-.241.246-.489.486-.73.732-.026.035-.1.089-.045.133.3.319.624.622.93.941.053.046.1.119.178.115.2,0,.407,0,.611,0a.207.207,0,0,0,.189-.224c.005-.3,0-.609,0-.913.215,0,.429,0,.644,0,.005.279,0,.558,0,.837a1.187,1.187,0,0,1-.065.522.68.68,0,0,1-.629.423H15.616a1.215,1.215,0,0,1-.581-.076.751.751,0,0,1-.366-.621c-.006-.266-.007-.532,0-.8.214.005.428,0,.642,0,0,.266-.016.533.01.8.058.06.148.048.224.051.873-.01,1.746.009,2.619-.009a3.206,3.206,0,0,0-.371-.4c-.212-.216-.43-.426-.639-.644-.038-.024-.027-.066,0-.091.367-.347.714-.715,1.076-1.067m-14.469.5c.2,0,.4,0,.594,0,0,.205,0,.41,0,.615-.2,0-.4,0-.594,0a3.093,3.093,0,0,1,0-.613m15.3.006c.211-.01.422-.008.633,0-.011.2-.01.407,0,.611h-.635c.008-.2.005-.4,0-.6m2.954,2.539c.2,0,.4,0,.594,0,0,.2.009.405,0,.608-.2,0-.4,0-.6,0,0-.2-.009-.406.008-.608Z" transform="translate(-2.655 -3.373)" fill="#48579f"/>
</svg>
