<svg id="sim-card" xmlns="http://www.w3.org/2000/svg" width="14.335" height="19.114" viewBox="0 0 14.335 19.114">
  <path id="Path_3607" data-name="Path 3607" d="M4.195,19.114A1.2,1.2,0,0,1,3,17.919V1.195A1.2,1.2,0,0,1,4.195,0h8.384A1.191,1.191,0,0,1,13.5.436L17.063,4.77a1.19,1.19,0,0,1,.272.759V17.919a1.2,1.2,0,0,1-1.195,1.195ZM4.195.8a.4.4,0,0,0-.4.4V17.919a.4.4,0,0,0,.4.4H16.141a.4.4,0,0,0,.4-.4V5.528a.394.394,0,0,0-.09-.251L12.887.941A.4.4,0,0,0,12.579.8H10.964V3.584a.4.4,0,1,1-.8,0V.8H8.575V3.584a.4.4,0,0,1-.8,0V.8H6.186V3.584a.4.4,0,0,1-.8,0V.8Z" transform="translate(-3 0)" fill="#fff"/>
  <path id="Path_3608" data-name="Path 3608" d="M7.888,18.174A1.844,1.844,0,0,1,6,16.381V12.794A1.844,1.844,0,0,1,7.888,11h5.285a1.844,1.844,0,0,1,1.888,1.794v3.587a1.845,1.845,0,0,1-1.888,1.794Zm5.285-.717a1.107,1.107,0,0,0,1.133-1.076v-.359H12.8v1.435Zm-1.132,0V11.717H9.02v5.739ZM6.755,16.381a1.107,1.107,0,0,0,1.133,1.076h.378V16.022H6.755Zm7.55-1.076V13.87H12.8V15.3Zm-6.04,0V13.87H6.755V15.3Zm6.04-2.152v-.359a1.107,1.107,0,0,0-1.133-1.076H12.8v1.435Zm-6.04,0V11.717H7.888a1.107,1.107,0,0,0-1.133,1.076v.359Z" transform="translate(-3.486 -2.239)" fill="#fff"/>
</svg>
