<svg xmlns="http://www.w3.org/2000/svg" width="23.997" height="24.006" viewBox="0 0 23.997 24.006">
  <g id="logout" transform="translate(0 0)">
    <path id="Path_4206" data-name="Path 4206" d="M11.994,24.016A12.027,12.027,0,0,1,.949,16.706a.5.5,0,0,1,.921-.392,11,11,0,1,0,10.108-15.3A11,11,0,0,0,1.87,7.7a.5.5,0,0,1-.461.305.486.486,0,0,1-.2-.04.5.5,0,0,1-.265-.656,11.993,11.993,0,1,1,11.045,16.7Z" transform="translate(0.005 -0.01)" fill="#78909c"/>
    <path id="Path_4207" data-name="Path 4207" d="M12.495,16.51a.5.5,0,0,1-.354-.853l3.146-3.146H.5a.5.5,0,0,1,0-1H15.288L12.142,8.365a.5.5,0,0,1,.708-.707l4,4a.5.5,0,0,1,.109.545.482.482,0,0,1-.109.162l-4,4A.511.511,0,0,1,12.495,16.51Z" transform="translate(0.005 -0.01)" fill="#78909c"/>
  </g>
</svg>
