<svg xmlns="http://www.w3.org/2000/svg" width="18.265" height="17.5" viewBox="0 0 18.265 17.5">
  <g id="shop-cart" transform="translate(0 0)">
    <path id="Path_4042" data-name="Path 4042" d="M2.663,18a1.143,1.143,0,0,1-1.141-1.141V7.1A2.554,2.554,0,0,1,0,4.672V3.924a.156.156,0,0,1,0-.032.4.4,0,0,1,.022-.1.021.021,0,0,1,0-.006.208.208,0,0,1,.011-.03L1.352,1.131A1.134,1.134,0,0,1,2.372.5H15.888a1.137,1.137,0,0,1,1.021.634l1.312,2.62c0,.008.008.02.011.029a.1.1,0,0,0,0,.012.394.394,0,0,1,.022.1c0,.01,0,.02,0,.029v.758A2.558,2.558,0,0,1,16.739,7.1v9.761A1.143,1.143,0,0,1,15.6,18Zm-.38-1.141a.381.381,0,0,0,.38.38H15.6a.381.381,0,0,0,.38-.38V7.3c-.063.008-.126.012-.185.014l-.084,0a2.558,2.558,0,0,1-1.569-.533,3.461,3.461,0,0,1-4.475.833,3.548,3.548,0,0,1-.535-.39,3.466,3.466,0,0,1-4.6-.012,3.476,3.476,0,0,1-.407-.433,2.55,2.55,0,0,1-1.562.53A2.584,2.584,0,0,1,2.282,7.3ZM4.565,6.1A2.687,2.687,0,0,0,6.832,7.339c.051,0,.1,0,.152,0a2.682,2.682,0,0,0,1.765-.8V4.3H4.565Zm4.946.444a2.673,2.673,0,0,0,1.908.8A2.684,2.684,0,0,0,13.695,6.1V4.3H9.51V6.54Zm4.946-.489a1.772,1.772,0,0,0,1.246.507h.064A1.8,1.8,0,0,0,17.5,4.7V4.3H14.456ZM.76,4.685A1.8,1.8,0,0,0,3.8,6.051V4.3H.76Zm16.5-1.141L16.228,1.472a.378.378,0,0,0-.34-.212H13.8l.571,2.283Zm-3.677,0-.571-2.283H9.511V3.544Zm-4.838,0V1.261H5.243L4.672,3.544Zm-4.861,0,.571-2.283H2.372a.378.378,0,0,0-.34.21L1,3.544Z" transform="translate(0.002 -0.5)" fill="rgba(255,255,255,0.75)"/>
    <path id="Path_4043" data-name="Path 4043" d="M9.022,18.471a.383.383,0,0,1-.364-.271L7.516,14.4a.381.381,0,0,1,.364-.49h.926l1.03-1.717A.382.382,0,0,1,10.163,12a.386.386,0,0,1,.2.054.381.381,0,0,1,.131.522l-.8,1.326h2.461l-.8-1.326a.38.38,0,1,1,.652-.391l1.03,1.717h1.053a.381.381,0,0,1,.361.5l-1.268,3.8a.38.38,0,0,1-.361.26Zm3.531-.761,1.014-3.044H8.392L9.3,17.71Z" transform="translate(-1.792 -3.251)" fill="rgba(255,255,255,0.75)"/>
  </g>
</svg>
