<svg id="wifi-off" xmlns="http://www.w3.org/2000/svg" width="20.799" height="22.998" viewBox="0 0 20.799 22.998">
  <path id="Path_4208" data-name="Path 4208" d="M2.2,7.1a.5.5,0,0,1-.353-.146.5.5,0,0,1,0-.707A14.478,14.478,0,0,1,16.22,2.6a.492.492,0,0,1,.3.241.5.5,0,0,1-.582.718,13.478,13.478,0,0,0-13.382,3.4A.494.494,0,0,1,2.2,7.1Z" transform="translate(-1.701 -0.502)" fill="#039be5"/>
  <path id="Path_4209" data-name="Path 4209" d="M5.03,10.93a.5.5,0,0,1-.354-.853A10.542,10.542,0,0,1,12.09,7c.174,0,.348,0,.523.013a.5.5,0,0,1-.023,1h-.028C12.407,8,12.252,8,12.1,8a9.545,9.545,0,0,0-6.712,2.783A.494.494,0,0,1,5.03,10.93Z" transform="translate(-1.701 -0.502)" fill="#039be5"/>
  <path id="Path_4210" data-name="Path 4210" d="M12.1,22.5A2.5,2.5,0,1,1,14.6,20,2.5,2.5,0,0,1,12.1,22.5Zm0-4A1.5,1.5,0,1,0,13.6,20,1.5,1.5,0,0,0,12.1,18.5Z" transform="translate(-1.701 -0.502)" fill="#039be5"/>
  <path id="Path_4211" data-name="Path 4211" d="M22,7.6a.494.494,0,0,1-.354-.147,13.528,13.528,0,0,0-1.362-1.192.5.5,0,1,1,.6-.8,14.518,14.518,0,0,1,1.465,1.282A.5.5,0,0,1,22,7.6Z" transform="translate(-1.701 -0.502)" fill="#039be5"/>
  <path id="Path_4212" data-name="Path 4212" d="M19.172,10.93a.494.494,0,0,1-.354-.147,9.627,9.627,0,0,0-1.694-1.349.5.5,0,0,1,.265-.923.492.492,0,0,1,.264.076,10.563,10.563,0,0,1,1.872,1.491.5.5,0,0,1-.353.852Z" transform="translate(-1.701 -0.502)" fill="#039be5"/>
  <path id="Path_4213" data-name="Path 4213" d="M16.345,15.257a.494.494,0,0,1-.354-.147,5.485,5.485,0,0,0-2.53-1.44.5.5,0,0,1,.123-.985.5.5,0,0,1,.122.015A6.468,6.468,0,0,1,16.7,14.4a.5.5,0,0,1,.146.354.492.492,0,0,1-.147.353A.5.5,0,0,1,16.345,15.257Z" transform="translate(-1.701 -0.502)" fill="#039be5"/>
  <path id="Path_4214" data-name="Path 4214" d="M2.6,23.5a.5.5,0,0,1-.378-.826l19-22a.5.5,0,0,1,.7-.051.492.492,0,0,1,.172.34.5.5,0,0,1-.12.364l-19,22A.5.5,0,0,1,2.6,23.5Z" transform="translate(-1.701 -0.502)" fill="#039be5"/>
</svg>
